<?xml version="1.0" encoding="utf-8"?>
<!-- Generator: Adobe Illustrator 27.5.0, SVG Export Plug-In . SVG Version: 6.00 Build 0)  -->
<svg version="1.1" id="Layer_1" xmlns="http://www.w3.org/2000/svg" xmlns:xlink="http://www.w3.org/1999/xlink" x="0px" y="0px"
	 viewBox="0 0 4000 4000" style="enable-background:new 0 0 4000 4000;" xml:space="preserve">
<g>
	<g>
		<rect style="fill:#FFFFFF;" width="4000" height="4000"/>
	</g>
	<g>
		<g>
			<circle style="fill:#06CDEF;" cx="2110.858" cy="2090.746" r="1254.379"/>
		</g>
		<g>
			<g>
				<path style="fill:#FFC8A9;" d="M3116.985,1661.174l-272.068,479.423l-204.929,361.161l-11.232,19.721l79.201,464.807
					l0.575,3.191H1552.29c-57.694-37.143-88.903-90.243-98.54-150.106c0-0.064-0.064-0.064-0.064-0.128
					c-16.913-105.879,33.506-232.818,123.621-329.891c0.383-0.382,0.83-0.83,1.212-1.277c12.764-13.721,26.423-26.805,40.719-39.122
					c0.064-0.128,0.191-0.192,0.255-0.255c26.677-22.976,55.843-43.399,86.924-60.247c2.553-1.341,5.042-2.681,7.594-4.021
					c83.989-30.888,519.056-119.089,519.056-119.089l33.442-5.234l26.932-4.212l15.509-2.425
					c36.761-5.808,70.203-24.698,94.072-53.354c4.34-5.234,8.935-10.786,13.849-16.722c0.064-0.127,0.128-0.191,0.128-0.191
					c43.653-52.908,105.942-130.706,150.107-195.228c2.041-2.999,4.148-6.127,6.382-9.318
					c76.138-112.836,212.013-337.485,212.013-337.485c-26.741-135.555-11.36-234.35,80.988-130.513
					c14.36-151.574,111.175-183.485,111.175-183.485c27.06-15.381,53.163-20.614,76.841-17.679
					C3155.405,1342.133,3212.652,1503.345,3116.985,1661.174z"/>
			</g>
			<g>
				<g>
					<path style="fill:#7AA9F4;" d="M2708.084,2986.286l0.447,3.191h-271.239c41.036-14.742,43.335-78.435,9.382-132.428
						c-5.17-8.168-11.169-16.146-17.934-23.677c-14.678-16.211-33.123-30.443-55.268-40.654c-9.445-4.339-21.762-8.68-36.505-13.02
						c19.912-109.198-75.181-91.2-121.643-27.252c-163.764-30.123-381.138-53.865-381.138-53.865
						c-116.218-93.688-346.1-73.01-380.436,140.789c0-0.064-0.064-0.064-0.064-0.128
						c-50.163-116.601,40.207-244.243,123.621-329.891c0.383-0.382,0.83-0.83,1.212-1.277
						c14.041-14.296,27.827-27.443,40.719-39.122c0.064-0.128,0.191-0.192,0.255-0.255c40.718-36.953,72.181-59.418,72.181-59.418
						c4.978-0.255,9.893-0.51,14.743-0.829c92.668-5.872,170.849-24.188,170.849-24.188
						c84.754,122.855,291.151,145.831,248.709-45.186l140.534-58.97l11.105-4.659c5.426,0.447,10.722,0.575,15.828,0.447
						c84.563-1.34,121.196-68.288,123.43-72.501c0.064-0.127,0.128-0.191,0.128-0.191l156.489-204.546l55.268-72.309
						c0,0,20.422,146.022,116.856,197.909c26.804,14.487,59.545,21.634,99.305,16.338l-204.929,361.161L2708.084,2986.286z"/>
				</g>
			</g>
			<g style="opacity:0.6;">
				<path style="fill:#FFFFFF;" d="M2847.214,1510.939c-18.955,22.273-17.487,87.945-2.17,165.679
					c0,0-143.661,237.541-218.396,346.802c-49.078,71.799-120.749,160.063-164.083,212.14
					c-23.805,28.592-57.247,47.546-94.072,53.291l-75.882,11.87c0,0-435.004,88.265-519.055,119.154
					c-229.244,118.771-356.057,429.515-183.038,569.601h-38.229c-204.036-131.279-76.394-461.616,161.721-585.046
					c83.989-30.888,519.056-119.089,519.056-119.089l75.883-11.871c36.761-5.808,70.203-24.698,94.072-53.354
					c43.334-52.078,114.941-140.342,164.084-212.14c74.734-109.262,218.395-346.803,218.395-346.803
					C2760.737,1535.639,2772.097,1441.631,2847.214,1510.939z"/>
			</g>
			<g style="opacity:0.6;">
				<path style="fill:#FFFFFF;" d="M3095.924,1344.304c-18.571,0.957-38.42,6.701-58.715,18.252c0,0-96.816,31.91-111.176,183.485
					c-23.359-26.293-41.803-39.569-55.907-42.504c22.465-128.344,107.537-156.361,107.537-156.361
					C3021.765,1322.157,3063.185,1324.009,3095.924,1344.304z"/>
			</g>
			<g>
				<path style="fill:#380076;" d="M2708.533,3011.834H1552.312c-4.287,0-8.482-1.233-12.085-3.552
					c-76.572-49.265-116.26-129.47-111.753-225.84c7.09-151.531,122.847-318.843,275.239-397.832
					c0.83-0.432,1.694-0.811,2.573-1.135c84.653-31.108,504.507-116.409,522.339-120.024c0.327-0.066,0.654-0.125,0.981-0.176
					l75.869-11.885c31.474-4.929,60.014-21.103,80.356-45.544c39.546-47.52,113.286-138.049,162.822-210.469
					c66.191-96.76,188.481-297.581,213.276-338.428c-14.092-75.4-20.454-165.71,23.193-187.38
					c22.607-11.226,46.738,0.234,65.942,15.134c26.016-117.214,102.256-152.09,117.183-157.869
					c59.722-33.106,121.748-25.613,166.25,20.188c60.85,62.627,80.967,194.497,1.753,325.459l-484.136,853.096l78.438,460.168
					c1.104,6.487-0.708,13.13-4.951,18.159S2715.115,3011.834,2708.533,3011.834z M1559.041,2967.162h1123.027l-75.332-441.931
					c-0.864-5.076,0.054-10.298,2.593-14.778l488.228-860.3c0.108-0.186,0.215-0.369,0.322-0.549
					c66.938-110.481,52.319-222.314,4.58-271.45c-30.732-31.631-71.143-35.728-113.794-11.548c-1.279,0.728-2.632,1.326-4.028,1.785
					c-3.208,1.128-83.242,30.64-95.913,164.377c-0.835,8.848-6.841,16.36-15.288,19.124c-8.467,2.764-17.734,0.256-23.638-6.387
					c-29.316-32.964-42.773-35.547-44.995-35.735c-7.29,6.433-16.333,51.055,2.603,147.087c1.079,5.456,0.078,11.121-2.798,15.881
					c-1.44,2.38-144.849,239.343-219.077,347.864c-50.571,73.928-125.308,165.698-165.361,213.823
					c-27.295,32.793-65.571,54.492-107.778,61.101l-75.366,11.807c-16.602,3.374-430.664,87.685-514.023,117.602
					c-138.516,72.385-243.525,223.386-249.897,359.595C1470.52,2839.691,1483.538,2915.555,1559.041,2967.162z"/>
			</g>
			<g>
				<path style="fill:#380076;" d="M2628.752,2543.822c-9.399,0-18.145-5.981-21.226-15.403l-27.124-82.966
					c-3.833-11.726,2.563-24.338,14.287-28.171c11.748-3.835,24.341,2.563,28.174,14.29l27.124,82.966
					c3.833,11.726-2.563,24.338-14.287,28.171C2633.391,2543.463,2631.052,2543.822,2628.752,2543.822z"/>
			</g>
			<g>
				<path style="fill:#380076;" d="M2819.197,2164.676c-71.538,0-130.069-38.037-170.44-111.289
					c-32.813-59.526-41.758-121.335-42.119-123.938c-1.714-12.217,6.802-23.508,19.019-25.222
					c12.149-1.69,23.496,6.789,25.22,18.997c1.26,8.87,32.607,216.352,191.084,195.22c12.173-1.653,23.462,6.956,25.098,19.189
					c1.631,12.227-6.963,23.462-19.189,25.093C2838.098,2164.029,2828.533,2164.676,2819.197,2164.676z"/>
			</g>
			<g>
				<path style="fill:#380076;" d="M2437.292,3011.842c-9.155,0-17.744-5.674-21.02-14.785c-4.175-11.609,1.85-24.404,13.462-28.579
					c14.766-5.31,17.7-22.964,18.13-33.015c1.724-39.888-27.041-96.357-83.73-122.454c-96.084-44.229-528.017-91.746-532.368-92.222
					c-4.248-0.461-8.272-2.134-11.597-4.812c-59.018-47.573-150.483-61.509-222.432-33.87
					c-46.733,17.947-105.825,60.413-121.929,160.798c-1.958,12.183-13.408,20.464-25.596,18.518
					c-12.178-1.956-20.469-13.413-18.516-25.593c15.195-94.707,68.476-164.112,150.024-195.43
					c85.351-32.773,189.404-17.954,261.23,36.68c56.592,6.311,442.749,50.644,539.863,95.349
					c75.186,34.609,112.09,109.182,109.683,164.958c-1.558,36.147-18.926,62.803-47.646,73.132
					C2442.356,3011.414,2439.802,3011.842,2437.292,3011.842z"/>
			</g>
			<g>
				<path style="fill:#380076;" d="M1834.182,2720.926c-2.671,0-5.391-0.483-8.032-1.504c-11.509-4.438-17.241-17.368-12.803-28.877
					l43.076-111.687c4.439-11.509,17.378-17.246,28.877-12.803c11.509,4.438,17.241,17.368,12.803,28.877l-43.076,111.687
					C1851.609,2715.487,1843.147,2720.926,1834.182,2720.926z"/>
			</g>
			<g>
				<path style="fill:#380076;" d="M2042.844,2501.949c-64.302,0-139.595-40.677-183.97-105.003
					c-7.002-10.154-4.448-24.065,5.703-31.069c10.151-7.002,24.063-4.456,31.074,5.703c47.92,69.473,134.321,99.321,179.541,79.607
					c39.79-17.349,37.734-67.903,28.999-107.256c-2.671-12.043,4.922-23.972,16.968-26.646c12.075-2.668,23.975,4.927,26.646,16.968
					c24.477,110.281-30.142,147.151-54.761,157.883C2077.766,2498.8,2060.725,2501.949,2042.844,2501.949z"/>
			</g>
			<g>
				<path style="fill:#380076;" d="M2336.975,2802.052c-1.333,0-2.681-0.12-4.038-0.369c-12.139-2.217-20.176-13.853-17.959-25.986
					c4.951-27.114,1.846-46.604-8.105-50.862c-15.479-6.621-50.942,9.749-73.447,40.759c-7.241,9.983-21.206,12.212-31.201,4.961
					c-9.985-7.246-12.202-21.213-4.961-31.199c34.727-47.852,89.404-71.748,127.183-55.596
					c18.267,7.815,47.041,31.196,34.478,99.964C2356.956,2794.503,2347.556,2802.052,2336.975,2802.052z"/>
			</g>
			<g>
				<path style="fill:#380076;" d="M2336.711,2779.634l-120.494-26.996C2262.87,2761.254,2305.12,2770.38,2336.711,2779.634z"/>
			</g>
			<g>
				<g>
					<path style="fill:#FFBF40;" d="M2657.487,1335.18c-6.963,50.545-22.041,100.773-46.545,148.969l-1556.435,335.927
						c-31.335-30.526-57.92-63.01-79.964-97.055C635.497,1199.806,1361.774,317.073,2084.21,809.432
						C2394.357,658.345,2702.984,1002.683,2657.487,1335.18z"/>
				</g>
				<g style="opacity:0.3;">
					<path style="fill:#380076;" d="M2648.25,1337.16c-6.963,50.545-22.042,100.773-46.545,148.969l-1556.435,335.927
						c-31.335-30.526-57.92-63.01-79.964-97.055l0.044-0.068c0,0,168.92,9.722,54.46-186.03
						c379.533-36.784,755.203-180.77,922.75-542.959c-0.344,4.421-56.192,206.022,97.25,290.966
						c155.575,86.132,397.725,28.341,404.136,30.843c6.423,2.559,177.866,172.289,204.091,20.334
						C2648.09,1337.782,2648.142,1337.477,2648.25,1337.16z"/>
				</g>
				<g style="opacity:0.6;">
					<path style="fill:#FFFFFF;" d="M2644.32,1135.393c-81.588-230.938-313.889-397.372-547.066-283.76
						c-195.033-132.892-390.384-165.614-564.97-132.178c-79.444,112.786-185.435,142.031-302.871,135.428
						C988.543,1034,849.413,1345.157,920.221,1612.948c-186.869-525.821,490.196-1262.716,1163.99-803.516
						C2331.377,689.001,2577.569,883.239,2644.32,1135.393z"/>
				</g>
				<g>
					<path style="fill:#FFC8A9;" d="M2593.775,1783.02c126.829,591.564-1274.715,892.051-1401.545,300.487
						c-238.681,119.727-379.632-273.014-58.604-273.345c0,0,3.249-3.751,7.926-10.981l0.056-0.012
						c17.596-26.977,55.868-101.916,25.047-209.507c0,0,503.718,11.432,720.072-312.991c0,0,14.425,27.278,53.775,59.023
						c6.756,5.483,14.303,11.091,22.684,16.755l0.012,0.056c77.568,52.453,224.103,106.275,482.783,66.676
						c0,0,41.026,54.355,89.19,90.495C2828.118,1378.372,2860.56,1794.377,2593.775,1783.02z"/>
				</g>
				<g style="opacity:0.3;">
					<path style="fill:#380076;" d="M2593.775,1783.02c126.829,591.564-1274.715,892.051-1401.545,300.487
						c-139.228,69.855-245.173-34.672-245.609-133.974c26.784,62.12,93.199,110.476,178.411,93.24
						c30.103-6.089,60.311,9.688,71.72,38.202c97.52,243.739,445.795,276.075,772.138,206.108
						c326.29-69.956,630.696-242.224,619.723-504.519c-1.284-30.685,19.802-57.459,49.755-64.246
						c84.789-19.212,125.543-90.545,124.507-158.185C2803.187,1650.887,2749.403,1789.659,2593.775,1783.02z"/>
				</g>
				<g>
					<path style="fill:#380076;" d="M1735.916,2426.934c-93.897,0.002-182.236-12.119-259.966-36.284
						c-158.359-49.233-261.162-144.395-298.965-276.155c-70.303,26.15-140.591,14.951-192.075-31.772
						c-53.804-48.828-74.639-126.34-50.674-188.499c14.873-38.569,58.989-102.561,188.071-106.221
						c14.897-22.107,51.929-90.627,22.871-192.197c-1.953-6.824-0.542-14.167,3.794-19.788c4.331-5.62,11.079-8.899,18.179-8.689
						c1.26,0.032,125.674,2.29,274.165-34.458c135.347-33.496,319.263-107.283,426.826-268.594
						c4.365-6.546,11.865-10.322,19.707-9.917c7.861,0.398,14.932,4.897,18.613,11.851c0.2,0.361,27.51,49.119,105.962,89.429
						c73.403,37.715,207.607,75.517,430.176,41.44c8.081-1.252,16.25,2.065,21.196,8.611c0.366,0.479,34.126,44.851,74.751,78.252
						c117.905-48.225,183.755-8.245,212.954,20.664c47.344,46.87,60.112,126.113,31.055,192.708
						c-27.803,63.718-87.334,102.739-162.168,107.72c19.536,135.676-35.22,264.614-159.478,374.441
						c-114.585,101.277-280.825,179.165-468.101,219.316C1905.222,2417.569,1818.421,2426.934,1735.916,2426.934z
						 M1192.249,2061.168c3.301,0,6.606,0.73,9.663,2.197c6.23,2.991,10.727,8.699,12.178,15.457
						c34.863,162.615,168.858,236.13,275.122,269.167c138.828,43.159,314.351,45.684,494.233,7.122
						c179.892-38.569,338.95-112.832,447.881-209.109c83.384-73.696,175.459-195.681,140.596-358.296
						c-1.45-6.758,0.313-13.809,4.771-19.089c4.453-5.283,11.079-8.25,18.018-7.91c69.614,2.937,123.081-26.667,146.899-81.257
						c21.846-50.068,12.988-108.909-21.538-143.093c-38.14-37.759-100.561-39.99-175.776-6.274
						c-7.417,3.33-16.069,2.356-22.559-2.529c-37.544-28.228-70.415-66.196-85.254-84.402
						c-58.804,8.435-111.982,12.117-159.878,12.119c-240.015,0.012-349.189-92.234-389.756-140.203
						c-93.53,123.941-243.491,214.033-435.938,261.453c-112.446,27.705-209.624,33.931-255.981,35.225
						c25.366,129.802-41.279,209.426-44.326,212.979c-4.238,4.939-10.425,7.786-16.934,7.79
						c-82.417,0.078-138.442,27.703-157.749,77.786c-17.48,45.332-1.436,102.632,39.014,139.343
						c44.111,40.034,105.098,45.091,167.3,13.896C1185.383,2061.959,1188.816,2061.168,1192.249,2061.168z"/>
				</g>
				<g>
					<path style="fill:#380076;" d="M1064.519,2050.247c-1.499,0-3.027-0.178-4.551-0.549
						c-10.273-2.505-16.572-12.864-14.067-23.137c7.969-32.671,29.302-51.118,46.807-61.084
						c-19.668-18.579-42.441-14.973-45.537-14.375c-10.254,1.982-20.396-4.658-22.49-14.946
						c-2.104-10.283,4.36-20.317,14.619-22.527c22.295-4.809,71.904-0.386,100.127,50.701c2.915,5.276,3.174,11.614,0.708,17.109
						c-2.471,5.496-7.388,9.509-13.267,10.83c-1.309,0.317-35.356,8.892-43.76,43.364
						C1080.974,2044.381,1073.142,2050.247,1064.519,2050.247z"/>
				</g>
				<g>
					<path style="fill:#380076;" d="M2688.811,1702c-5.703,0-11.348-2.536-15.122-7.385c-21.792-27.993-56.362-21.853-57.837-21.584
						c-5.859,1.111-11.997-0.576-16.431-4.58c-4.438-3.999-6.831-9.829-6.338-15.784c4.805-58.161,48.247-82.532,70.542-87.292
						c10.347-2.185,20.518,4.387,22.725,14.729c2.192,10.288-4.321,20.408-14.565,22.686c-3.164,0.75-25.327,6.836-35.615,31.772
						c20.049,1.917,47.07,9.993,67.734,36.528c6.494,8.342,5,20.371-3.345,26.87C2697.063,1700.679,2692.922,1702,2688.811,1702z"/>
				</g>
				<g style="opacity:0.3;">
					<path style="fill:#380076;" d="M2445.981,1419.18c-230.889,130.18-477.613,43.478-543.974,7.949
						c-153.822,141.245-505.937,277.421-692.671,206.252c0,0,45.798,108.669-67.728,165.788
						c17.596-26.977,55.868-101.916,25.047-209.507c0,0,503.718,11.432,720.072-312.991c0,0,14.425,27.278,53.775,59.023
						c2.769,2.226,5.673,4.541,8.746,6.819c1.195,0.919,2.448,1.825,3.768,2.776c1.605,1.183,3.266,2.355,4.995,3.57
						c1.661,1.171,3.39,2.386,5.176,3.59l0.012,0.056C2040.767,1404.957,2187.301,1458.779,2445.981,1419.18z"/>
				</g>
				<g>
					<path style="fill:#380076;" d="M1054.509,1842.411c-5.615,0-11.235-2.102-15.576-6.328
						c-121.587-118.32-180.933-272.109-171.626-444.749c8.423-156.267,73.428-316.216,183.042-450.388
						c223.516-273.596,629.375-426.733,1035.82-157.114c149.79-67.207,313.091-31.563,439.185,96.689
						c74.175,75.447,126.816,175.632,148.228,282.1c23.345,116.077,8.569,230.759-42.725,331.65
						c-5.586,10.999-19.028,15.383-30.034,9.79c-10.996-5.591-15.381-19.038-9.79-30.034
						c106.597-209.668,24.165-438.396-97.534-562.185c-115.293-117.273-264.648-148.047-399.526-82.344
						c-7.202,3.511-15.737,2.893-22.363-1.621c-386.592-263.457-774.106-118.848-986.665,141.333
						c-186.172,227.883-270.229,586.338-14.858,834.856c8.843,8.604,9.038,22.746,0.43,31.587
						C1066.14,1840.152,1060.325,1842.411,1054.509,1842.411z"/>
				</g>
				<g>
					<g>
						<path style="fill:#380076;" d="M2018.755,2136.001h-0.064c-2.233,5.233-4.787,10.403-7.594,15.445
							c-37.016,67.204-115.452,101.858-187.314,78.244c-3.191-1.021-6.382-2.17-9.573-3.446
							c-61.971-25.145-105.559-86.796-126.812-161.084c134.917-10.02,245.774-53.992,304.745-171.168
							C2034.775,1976.641,2050.602,2063.437,2018.755,2136.001z"/>
					</g>
					<g>
						<path style="fill:#F73C69;" d="M2011.246,2126.428c-2.233,5.233-4.786,10.403-7.594,15.445
							c-37.016,67.204-115.452,101.858-187.314,78.244c-0.064-0.064-0.064-0.064-0.064-0.064S1862.926,2095.73,2011.246,2126.428z"
							/>
					</g>
					<g>
						<g style="opacity:0.6;">
							
								<ellipse transform="matrix(0.929 -0.3702 0.3702 0.929 -581.1658 695.1527)" style="fill:#FFFFFF;" cx="1520.666" cy="1861.828" rx="139.052" ry="175.142"/>
						</g>
						<g>
							
								<ellipse transform="matrix(0.929 -0.3702 0.3702 0.929 -576.0757 684.1538)" style="fill:#380076;" cx="1494.554" cy="1843.067" rx="139.052" ry="175.142"/>
						</g>
						<g>
							
								<ellipse transform="matrix(0.929 -0.3702 0.3702 0.929 -555.8942 694.2827)" style="fill:#FFFFFF;" cx="1531.037" cy="1795.548" rx="44.051" ry="58.524"/>
						</g>
					</g>
					<g>
						<g style="opacity:0.6;">
							
								<ellipse transform="matrix(0.9514 -0.3079 0.3079 0.9514 -413.267 730.4924)" style="fill:#FFFFFF;" cx="2108.032" cy="1674.739" rx="136.986" ry="172.54"/>
						</g>
						<g>
							
								<ellipse transform="matrix(0.9514 -0.3079 0.3079 0.9514 -409.983 724.185)" style="fill:#380076;" cx="2089.684" cy="1661.177" rx="136.986" ry="172.54"/>
						</g>
						<g>
							
								<ellipse transform="matrix(0.9514 -0.3079 0.3079 0.9514 -394.438 734.0255)" style="fill:#FFFFFF;" cx="2128.641" cy="1616.844" rx="43.396" ry="57.655"/>
						</g>
					</g>
					<g>
						<path style="fill:#380076;" d="M1779.934,1969.212c-2.114,0-4.268-0.393-6.353-1.221c-8.838-3.511-13.159-13.523-9.648-22.361
							l15.313-38.562c7.773-19.57,27.119-31.697,48.105-30.159l41.382,3.015c9.487,0.691,16.616,8.941,15.928,18.428
							c-0.693,9.482-8.96,16.653-18.428,15.923l-41.382-3.015c-5.957-0.437-11.401,2.993-13.594,8.521l-15.313,38.56
							C1793.264,1965.096,1786.785,1969.212,1779.934,1969.212z"/>
					</g>
					<g>
						<path style="fill:#380076;" d="M1870.134,2259.439c-17.817,0.002-35.781-2.761-53.325-8.528
							c-3.56-1.14-7.275-2.481-10.903-3.931c-64.546-26.189-115.532-90.208-139.98-175.679c-1.851-6.46-0.688-13.408,3.154-18.921
							c3.843-5.513,9.966-8.999,16.665-9.497c146.323-10.867,237.344-61.37,286.445-158.933c3.774-7.502,11.44-12.253,19.839-12.295
							c0.039,0,0.078,0,0.112,0c8.359,0,16.021,4.663,19.854,12.097c50.141,97.209,59.556,187.542,27.217,261.225
							c-0.205,0.464-0.42,0.921-0.654,1.365c-2.344,5.339-5.015,10.703-7.944,15.972
							C1997.005,2223.329,1934.534,2259.437,1870.134,2259.439z M1717.42,2084.769c22.451,59.065,59.907,102.402,105.19,120.776
							c2.559,1.025,5.283,2.007,7.998,2.876c60.693,19.951,128.32-8.569,160.923-67.751c2.52-4.522,4.732-9.016,6.621-13.448
							c0.229-0.537,0.479-1.06,0.747-1.57c26.343-61.47,12.817-128.958-9.219-183.611
							C1933.85,2023.28,1844.197,2070.225,1717.42,2084.769z M2018.757,2136.002h0.049H2018.757z"/>
					</g>
					<g>
						<path style="fill:#380076;" d="M1278.562,1689.607c5.183-67.671,73.657-120.109,139.761-117.355
							c22.173,0.986,43.799,6.964,61.832,20.273c1.727,1.275,2.094,3.71,0.819,5.438c-0.491,0.662-1.143,1.121-1.87,1.37
							c-20.61,7.426-38.409,12.355-55.056,18.055c-16.565,5.799-31.805,11.743-46.779,18.771
							c-33.005,15.488-60.584,34.907-92.533,56.503C1282.339,1694.685,1278.36,1692.758,1278.562,1689.607L1278.562,1689.607z"/>
					</g>
					<g>
						<path style="fill:#380076;" d="M2115.763,1426.802c-55.633,5.633-103.9,12.367-154.78,33.424
							c-16.353,6.496-33.078,14.327-53.565,22.091c-2.795,1.21-6.007-1.553-5.224-4.489
							c16.267-67.024,94.734-103.462,158.959-88.001c10.719,2.471,21.079,6.11,30.781,11.093
							C2096.591,1403.068,2130.307,1422.965,2115.763,1426.802L2115.763,1426.802z"/>
					</g>
				</g>
			</g>
			<g style="opacity:0.3;">
				<path style="fill:#380076;" d="M3116.985,1661.174l-272.068,479.423l-204.929,361.161l68.096,484.528h-255.921
					c41.036-58.46,17.423-103.772-5.489-129.237c-13.338-14.806-26.421-22.848-26.421-22.848c2.872-0.192,5.743-0.447,8.487-0.83
					c182.975-24.188,112.772-494.293,112.772-494.293l38.292,46.27c0,0,71.99-112.643,165.806-261.09
					c73.713-116.729,161.02-255.667,237.413-379.288c173.465-280.812,71.415-415.41,71.415-415.41l0.064-0.064
					C3155.405,1342.133,3212.652,1503.345,3116.985,1661.174z"/>
			</g>
			<g style="opacity:0.3;">
				<path style="fill:#380076;" d="M2035.589,2715.069c0,0-2.342-0.412-6.431-1.365c-30.363-7.076-157.03-43.981-135.937-163.506
					c0,0-133.047-18.538-171.03,99.226l118.378,51.665"/>
			</g>
			<g style="opacity:0.3;">
				<path style="fill:#380076;" d="M2452.164,2986.286c0,0,0.383,1.149,0.893,3.191h-636.805
					c446.938-14.87,478.529-236.839,478.529-236.839C2528.749,2846.582,2452.164,2986.286,2452.164,2986.286z"/>
			</g>
			<g>
				<path style="fill:#380076;" d="M1601.238,3011.834h-197.842c-12.339,0-22.339-10-22.339-22.336
					c0-12.336,10-22.336,22.339-22.336h197.842c12.339,0,22.339,10,22.339,22.336
					C1623.577,3001.834,1613.577,3011.834,1601.238,3011.834z"/>
			</g>
			<g>
				<path style="fill:#380076;" d="M2890.422,3011.834h-239.941c-12.339,0-22.339-10-22.339-22.336
					c0-12.336,10-22.336,22.339-22.336h239.941c12.339,0,22.339,10,22.339,22.336
					C2912.761,3001.834,2902.761,3011.834,2890.422,3011.834z"/>
			</g>
		</g>
	</g>
</g>
</svg>
